<svg xmlns="http://www.w3.org/2000/svg" viewBox="0 0 893.14 169.46"><defs><style>.cls-1{fill:#fff;}.cls-1,.cls-2,.cls-3{opacity:0.75;}.cls-2{fill:#003f7f;}.cls-3{fill:#2aaeff;}.cls-4{fill:#030ba6;}.cls-5{fill:#25064c;}.cls-6{fill:#518bff;}</style></defs><title>logo_1</title><g id="Warstwa_2" data-name="Warstwa 2"><g id="Warstwa_1-2" data-name="Warstwa 1"><path class="cls-1" d="M150.63,0H75.31L0,84.73l75.31,84.73h75.32l75.31-84.73ZM113,127.09,75.31,84.73,113,42.36l37.66,42.37Z"/><polygon class="cls-2" points="225.94 84.73 150.63 0 75.31 0 150.63 84.73 225.94 84.73"/><polygon class="cls-3" points="0 84.73 75.31 0 150.63 0 75.31 84.73 0 84.73"/><polygon class="cls-3" points="75.31 169.46 150.63 84.73 225.94 84.73 150.63 169.46 75.31 169.46"/><polygon class="cls-2" points="150.63 169.46 75.31 84.73 0 84.73 75.31 169.46 150.63 169.46"/><path class="cls-4" d="M327.47,52.33V10.43h14.46V140.21H327.47v-8c-7.41,6.49-15.57,10-25.4,10-26.7,0-41.16-27.07-41.16-51,0-26.32,13.72-48.39,42.09-48.39C311.34,42.87,321.54,46.4,327.47,52.33ZM277.41,91.08c0,17.43,8.16,37.08,28.37,37.08,8,0,16.87-4.26,21.69-10.57V67.35c-3.89-5.75-15-9.83-21.88-9.83C284.46,57.52,277.41,74.39,277.41,91.08Z"/><path class="cls-4" d="M377.9,34.34a9.45,9.45,0,0,1-9.45-9.27,9.55,9.55,0,0,1,19.09,0A9.62,9.62,0,0,1,377.9,34.34Zm7.42,105.87H370.49V44.91h14.83Z"/><path class="cls-4" d="M424.62,44.91l23.18,71.76L471,44.91h15.57l-31.33,95.3H440.38l-30.77-95.3Z"/><path class="cls-5" d="M506.76,94.23a13.17,13.17,0,0,1,0-26.33,13.17,13.17,0,1,1,0,26.33Z"/><path class="cls-6" d="M609.47,55.67l-7,12c-5.75-5.94-14.46-10.2-22.62-10.2-18.73,0-31.52,17.43-31.52,34.86,0,17.24,12.42,34.67,30.78,34.67,8.53,0,17.42-4.27,23.36-10.2l7,12.05c-7.78,8.16-21.13,13.17-32.26,13.17-27.62,0-44.31-23.74-44.31-49.51,0-26.51,17.06-49.5,44.87-49.5C588.71,43.06,602.06,47.51,609.47,55.67Z"/><path class="cls-6" d="M646,44.91v16c3.52-10.39,14.83-17.8,25.77-17.8,3.89,0,7.79,1.11,11.68,2l-7.23,15.57a20.49,20.49,0,0,0-7.42-1.48c-17.61,0-22.8,18-22.8,32.63v48.39H631V44.91Z"/><path class="cls-6" d="M772.82,130l-5.57,12a19.91,19.91,0,0,1-17.61-11.5,40.15,40.15,0,0,1-28.18,11.5c-19.66,0-32.45-13-32.45-32.63,0-17.62,15.2-33,32.45-33,10.38,0,18.91,3.34,24.84,8.16-.37-13.35-4.63-28-22.43-28-9.09,0-17.8,4.27-24.66,10L694,55.48c7.78-7.79,19.84-12.61,31-12.61C781.9,42.87,746.67,130.39,772.82,130Zm-69-20.58c0,11.68,8.35,19.28,20.21,19.28,8.35,0,17.43-3.52,23-10l-.55-20.21c-5.38-5.57-12.24-8.16-22.44-8.16C713.67,90.34,703.84,98.87,703.84,109.44Z"/><path class="cls-6" d="M893.14,136.51a29,29,0,0,1-16.87,5.37c-18.72,0-26.33-18.35-26.33-34.48V58.08H808.6l-.19,82.13H794V58.08H780.42V44.91H794c0-17.8,10-36.52,29.85-36.52,5.75,0,13,1.85,17.8,5.37l-4.82,10.39a20.72,20.72,0,0,0-10.57-2.6c-13.16,0-17.61,12.24-17.43,23.36h41.16V18.77h14.65V44.91h28V58.08h-28l.19,45.24c0,9.27.74,24.84,13.35,24.84a18.87,18.87,0,0,0,9.82-3.34Z"/></g></g></svg>